<mxfile host="app.diagrams.net" modified="2023-07-11T05:50:36.632Z" agent="Mozilla/5.0 (Macintosh; Intel Mac OS X 10_15_7) AppleWebKit/537.36 (KHTML, like Gecko) Chrome/111.0.0.0 Safari/537.36" version="21.5.2" etag="JdIAndD1AlamPHTPsJo5" type="github">
  <diagram name="第 1 页" id="4JoTaoSx7be4t_oKLLkg">
    <mxGraphModel>
      <root>
        <mxCell id="0" />
        <mxCell id="1" parent="0" />
      </root>
    </mxGraphModel>
  </diagram>
</mxfile>
